<svg aria-roledescription="er" role="graphics-document document" viewBox="0 0 604.3245849609375 434.03125" height="434.03125" xmlns="http://www.w3.org/2000/svg" width="604.3245849609375" id="tmpMermaidElement4085"><style>svg {background: white;}#tmpMermaidElement4085{font-family:"trebuchet ms",verdana,arial,sans-serif;font-size:16px;fill:#333;}#tmpMermaidElement4085 .error-icon{fill:#552222;}#tmpMermaidElement4085 .error-text{fill:#552222;stroke:#552222;}#tmpMermaidElement4085 .edge-thickness-normal{stroke-width:2px;}#tmpMermaidElement4085 .edge-thickness-thick{stroke-width:3.5px;}#tmpMermaidElement4085 .edge-pattern-solid{stroke-dasharray:0;}#tmpMermaidElement4085 .edge-pattern-dashed{stroke-dasharray:3;}#tmpMermaidElement4085 .edge-pattern-dotted{stroke-dasharray:2;}#tmpMermaidElement4085 .marker{fill:#333333;stroke:#333333;}#tmpMermaidElement4085 .marker.cross{stroke:#333333;}#tmpMermaidElement4085 svg{font-family:"trebuchet ms",verdana,arial,sans-serif;font-size:16px;}#tmpMermaidElement4085 .entityBox{fill:#ECECFF;stroke:#9370DB;}#tmpMermaidElement4085 .attributeBoxOdd{fill:#ffffff;stroke:#9370DB;}#tmpMermaidElement4085 .attributeBoxEven{fill:#f2f2f2;stroke:#9370DB;}#tmpMermaidElement4085 .relationshipLabelBox{fill:hsl(80, 100%, 96.2745098039%);opacity:0.7;background-color:hsl(80, 100%, 96.2745098039%);}#tmpMermaidElement4085 .relationshipLabelBox rect{opacity:0.5;}#tmpMermaidElement4085 .relationshipLine{stroke:#333333;}#tmpMermaidElement4085 .entityTitleText{text-anchor:middle;font-size:18px;fill:#333;}#tmpMermaidElement4085 #MD_PARENT_START{fill:#f5f5f5!important;stroke:#333333!important;stroke-width:1;}#tmpMermaidElement4085 #MD_PARENT_END{fill:#f5f5f5!important;stroke:#333333!important;stroke-width:1;}#tmpMermaidElement4085 :root{--mermaid-font-family:"trebuchet ms",verdana,arial,sans-serif;}</style><g></g><defs><marker orient="auto" markerHeight="240" markerWidth="190" refY="7" refX="0" id="MD_PARENT_START"><path d="M 18,7 L9,13 L1,7 L9,1 Z"></path></marker></defs><defs><marker orient="auto" markerHeight="28" markerWidth="20" refY="7" refX="19" id="MD_PARENT_END"><path d="M 18,7 L9,13 L1,7 L9,1 Z"></path></marker></defs><defs><marker orient="auto" markerHeight="18" markerWidth="18" refY="9" refX="0" id="ONLY_ONE_START"><path d="M9,0 L9,18 M15,0 L15,18" fill="none" stroke="gray"></path></marker></defs><defs><marker orient="auto" markerHeight="18" markerWidth="18" refY="9" refX="18" id="ONLY_ONE_END"><path d="M3,0 L3,18 M9,0 L9,18" fill="none" stroke="gray"></path></marker></defs><defs><marker orient="auto" markerHeight="18" markerWidth="30" refY="9" refX="0" id="ZERO_OR_ONE_START"><circle r="6" cy="9" cx="21" fill="white" stroke="gray"></circle><path d="M9,0 L9,18" fill="none" stroke="gray"></path></marker></defs><defs><marker orient="auto" markerHeight="18" markerWidth="30" refY="9" refX="30" id="ZERO_OR_ONE_END"><circle r="6" cy="9" cx="9" fill="white" stroke="gray"></circle><path d="M21,0 L21,18" fill="none" stroke="gray"></path></marker></defs><defs><marker orient="auto" markerHeight="36" markerWidth="45" refY="18" refX="18" id="ONE_OR_MORE_START"><path d="M0,18 Q 18,0 36,18 Q 18,36 0,18 M42,9 L42,27" fill="none" stroke="gray"></path></marker></defs><defs><marker orient="auto" markerHeight="36" markerWidth="45" refY="18" refX="27" id="ONE_OR_MORE_END"><path d="M3,9 L3,27 M9,18 Q27,0 45,18 Q27,36 9,18" fill="none" stroke="gray"></path></marker></defs><defs><marker orient="auto" markerHeight="36" markerWidth="57" refY="18" refX="18" id="ZERO_OR_MORE_START"><circle r="6" cy="18" cx="48" fill="white" stroke="gray"></circle><path d="M0,18 Q18,0 36,18 Q18,36 0,18" fill="none" stroke="gray"></path></marker></defs><defs><marker orient="auto" markerHeight="36" markerWidth="57" refY="18" refX="39" id="ZERO_OR_MORE_END"><circle r="6" cy="18" cx="9" fill="white" stroke="gray"></circle><path d="M21,18 Q39,0 57,18 Q39,36 21,18" fill="none" stroke="gray"></path></marker></defs><path style="stroke: gray; fill: none;" marker-start="url(#ONLY_ONE_START)" marker-end="url(#ZERO_OR_MORE_END)" d="M78.315,155.016L78.315,165.349C78.315,175.682,78.315,196.349,106.688,222.594C135.061,248.838,191.807,280.661,220.18,296.572L248.553,312.484" class="er relationshipLine"></path><path style="stroke: gray; fill: none;" marker-start="url(#ONLY_ONE_START)" marker-end="url(#ZERO_OR_MORE_END)" d="M298.553,167.016L298.553,175.349C298.553,183.682,298.553,200.349,298.553,217.016C298.553,233.682,298.553,250.349,298.553,258.682L298.553,267.016" class="er relationshipLine"></path><path style="stroke: gray; fill: none;" marker-start="url(#ONLY_ONE_START)" marker-end="url(#ZERO_OR_MORE_END)" d="M522.401,167.016L522.401,175.349C522.401,183.682,522.401,200.349,493.426,224.669C464.451,248.989,406.502,280.963,377.528,296.949L348.553,312.936" class="er relationshipLine"></path><g transform="translate(20,32 )" id="entity-USER-6e7e2962-0c6f-577d-a7fd-2ce3a0cfd2c8"><rect height="123.015625" width="116.6290283203125" y="0" x="0" class="er entityBox"></rect><text style="dominant-baseline: middle; text-anchor: middle; font-size: 12px;" transform="translate(58.31451416015625,13.5078125)" y="0" x="0" id="text-entity-USER-6e7e2962-0c6f-577d-a7fd-2ce3a0cfd2c8" class="er entityLabel">USER</text><rect height="24" width="37.4693603515625" y="27.015625" x="0" class="er attributeBoxOdd"></rect><text style="dominant-baseline: middle; font-size: 10.2px;" transform="translate(5,39.015625)" y="0" x="0" id="text-entity-USER-6e7e2962-0c6f-577d-a7fd-2ce3a0cfd2c8-attr-1-type" class="er entityLabel">int</text><rect height="24" width="56.03125" y="27.015625" x="37.4693603515625" class="er attributeBoxOdd"></rect><text style="dominant-baseline: middle; font-size: 10.2px;" transform="translate(42.4693603515625,39.015625)" y="0" x="0" id="text-entity-USER-6e7e2962-0c6f-577d-a7fd-2ce3a0cfd2c8-attr-1-name" class="er entityLabel">userId</text><rect height="24" width="23.12841796875" y="27.015625" x="93.5006103515625" class="er attributeBoxOdd"></rect><text style="dominant-baseline: middle; font-size: 10.2px;" transform="translate(98.5006103515625,39.015625)" y="0" x="0" id="text-entity-USER-6e7e2962-0c6f-577d-a7fd-2ce3a0cfd2c8-attr-1-key" class="er entityLabel">PK</text><rect height="24" width="37.4693603515625" y="51.015625" x="0" class="er attributeBoxEven"></rect><text style="dominant-baseline: middle; font-size: 10.2px;" transform="translate(5,63.015625)" y="0" x="0" id="text-entity-USER-6e7e2962-0c6f-577d-a7fd-2ce3a0cfd2c8-attr-2-type" class="er entityLabel">string</text><rect height="24" width="56.03125" y="51.015625" x="37.4693603515625" class="er attributeBoxEven"></rect><text style="dominant-baseline: middle; font-size: 10.2px;" transform="translate(42.4693603515625,63.015625)" y="0" x="0" id="text-entity-USER-6e7e2962-0c6f-577d-a7fd-2ce3a0cfd2c8-attr-2-name" class="er entityLabel">name</text><rect height="24" width="23.12841796875" y="51.015625" x="93.5006103515625" class="er attributeBoxEven"></rect><text style="dominant-baseline: middle; font-size: 10.2px;" transform="translate(98.5006103515625,63.015625)" y="0" x="0" id="text-entity-USER-6e7e2962-0c6f-577d-a7fd-2ce3a0cfd2c8-attr-2-key" class="er entityLabel"></text><rect height="24" width="37.4693603515625" y="75.015625" x="0" class="er attributeBoxOdd"></rect><text style="dominant-baseline: middle; font-size: 10.2px;" transform="translate(5,87.015625)" y="0" x="0" id="text-entity-USER-6e7e2962-0c6f-577d-a7fd-2ce3a0cfd2c8-attr-3-type" class="er entityLabel">string</text><rect height="24" width="56.03125" y="75.015625" x="37.4693603515625" class="er attributeBoxOdd"></rect><text style="dominant-baseline: middle; font-size: 10.2px;" transform="translate(42.4693603515625,87.015625)" y="0" x="0" id="text-entity-USER-6e7e2962-0c6f-577d-a7fd-2ce3a0cfd2c8-attr-3-name" class="er entityLabel">email</text><rect height="24" width="23.12841796875" y="75.015625" x="93.5006103515625" class="er attributeBoxOdd"></rect><text style="dominant-baseline: middle; font-size: 10.2px;" transform="translate(98.5006103515625,87.015625)" y="0" x="0" id="text-entity-USER-6e7e2962-0c6f-577d-a7fd-2ce3a0cfd2c8-attr-3-key" class="er entityLabel"></text><rect height="24" width="37.4693603515625" y="99.015625" x="0" class="er attributeBoxEven"></rect><text style="dominant-baseline: middle; font-size: 10.2px;" transform="translate(5,111.015625)" y="0" x="0" id="text-entity-USER-6e7e2962-0c6f-577d-a7fd-2ce3a0cfd2c8-attr-4-type" class="er entityLabel">string</text><rect height="24" width="56.03125" y="99.015625" x="37.4693603515625" class="er attributeBoxEven"></rect><text style="dominant-baseline: middle; font-size: 10.2px;" transform="translate(42.4693603515625,111.015625)" y="0" x="0" id="text-entity-USER-6e7e2962-0c6f-577d-a7fd-2ce3a0cfd2c8-attr-4-name" class="er entityLabel">password</text><rect height="24" width="23.12841796875" y="99.015625" x="93.5006103515625" class="er attributeBoxEven"></rect><text style="dominant-baseline: middle; font-size: 10.2px;" transform="translate(98.5006103515625,111.015625)" y="0" x="0" id="text-entity-USER-6e7e2962-0c6f-577d-a7fd-2ce3a0cfd2c8-attr-4-key" class="er entityLabel"></text></g><g transform="translate(236.6290283203125,20 )" id="entity-DISH-c8682c78-de06-5681-a6e5-356bb2811680"><rect height="147.015625" width="123.8477783203125" y="0" x="0" class="er entityBox"></rect><text style="dominant-baseline: middle; text-anchor: middle; font-size: 12px;" transform="translate(61.92388916015625,13.5078125)" y="0" x="0" id="text-entity-DISH-c8682c78-de06-5681-a6e5-356bb2811680" class="er entityLabel">DISH</text><rect height="24" width="37.4693603515625" y="27.015625" x="0" class="er attributeBoxOdd"></rect><text style="dominant-baseline: middle; font-size: 10.2px;" transform="translate(5,39.015625)" y="0" x="0" id="text-entity-DISH-c8682c78-de06-5681-a6e5-356bb2811680-attr-1-type" class="er entityLabel">int</text><rect height="24" width="63.25" y="27.015625" x="37.4693603515625" class="er attributeBoxOdd"></rect><text style="dominant-baseline: middle; font-size: 10.2px;" transform="translate(42.4693603515625,39.015625)" y="0" x="0" id="text-entity-DISH-c8682c78-de06-5681-a6e5-356bb2811680-attr-1-name" class="er entityLabel">dishId</text><rect height="24" width="23.12841796875" y="27.015625" x="100.7193603515625" class="er attributeBoxOdd"></rect><text style="dominant-baseline: middle; font-size: 10.2px;" transform="translate(105.7193603515625,39.015625)" y="0" x="0" id="text-entity-DISH-c8682c78-de06-5681-a6e5-356bb2811680-attr-1-key" class="er entityLabel">PK</text><rect height="24" width="37.4693603515625" y="51.015625" x="0" class="er attributeBoxEven"></rect><text style="dominant-baseline: middle; font-size: 10.2px;" transform="translate(5,63.015625)" y="0" x="0" id="text-entity-DISH-c8682c78-de06-5681-a6e5-356bb2811680-attr-2-type" class="er entityLabel">string</text><rect height="24" width="63.25" y="51.015625" x="37.4693603515625" class="er attributeBoxEven"></rect><text style="dominant-baseline: middle; font-size: 10.2px;" transform="translate(42.4693603515625,63.015625)" y="0" x="0" id="text-entity-DISH-c8682c78-de06-5681-a6e5-356bb2811680-attr-2-name" class="er entityLabel">name</text><rect height="24" width="23.12841796875" y="51.015625" x="100.7193603515625" class="er attributeBoxEven"></rect><text style="dominant-baseline: middle; font-size: 10.2px;" transform="translate(105.7193603515625,63.015625)" y="0" x="0" id="text-entity-DISH-c8682c78-de06-5681-a6e5-356bb2811680-attr-2-key" class="er entityLabel"></text><rect height="24" width="37.4693603515625" y="75.015625" x="0" class="er attributeBoxOdd"></rect><text style="dominant-baseline: middle; font-size: 10.2px;" transform="translate(5,87.015625)" y="0" x="0" id="text-entity-DISH-c8682c78-de06-5681-a6e5-356bb2811680-attr-3-type" class="er entityLabel">string</text><rect height="24" width="63.25" y="75.015625" x="37.4693603515625" class="er attributeBoxOdd"></rect><text style="dominant-baseline: middle; font-size: 10.2px;" transform="translate(42.4693603515625,87.015625)" y="0" x="0" id="text-entity-DISH-c8682c78-de06-5681-a6e5-356bb2811680-attr-3-name" class="er entityLabel">description</text><rect height="24" width="23.12841796875" y="75.015625" x="100.7193603515625" class="er attributeBoxOdd"></rect><text style="dominant-baseline: middle; font-size: 10.2px;" transform="translate(105.7193603515625,87.015625)" y="0" x="0" id="text-entity-DISH-c8682c78-de06-5681-a6e5-356bb2811680-attr-3-key" class="er entityLabel"></text><rect height="24" width="37.4693603515625" y="99.015625" x="0" class="er attributeBoxEven"></rect><text style="dominant-baseline: middle; font-size: 10.2px;" transform="translate(5,111.015625)" y="0" x="0" id="text-entity-DISH-c8682c78-de06-5681-a6e5-356bb2811680-attr-4-type" class="er entityLabel">float</text><rect height="24" width="63.25" y="99.015625" x="37.4693603515625" class="er attributeBoxEven"></rect><text style="dominant-baseline: middle; font-size: 10.2px;" transform="translate(42.4693603515625,111.015625)" y="0" x="0" id="text-entity-DISH-c8682c78-de06-5681-a6e5-356bb2811680-attr-4-name" class="er entityLabel">price</text><rect height="24" width="23.12841796875" y="99.015625" x="100.7193603515625" class="er attributeBoxEven"></rect><text style="dominant-baseline: middle; font-size: 10.2px;" transform="translate(105.7193603515625,111.015625)" y="0" x="0" id="text-entity-DISH-c8682c78-de06-5681-a6e5-356bb2811680-attr-4-key" class="er entityLabel"></text><rect height="24" width="37.4693603515625" y="123.015625" x="0" class="er attributeBoxOdd"></rect><text style="dominant-baseline: middle; font-size: 10.2px;" transform="translate(5,135.015625)" y="0" x="0" id="text-entity-DISH-c8682c78-de06-5681-a6e5-356bb2811680-attr-5-type" class="er entityLabel">string</text><rect height="24" width="63.25" y="123.015625" x="37.4693603515625" class="er attributeBoxOdd"></rect><text style="dominant-baseline: middle; font-size: 10.2px;" transform="translate(42.4693603515625,135.015625)" y="0" x="0" id="text-entity-DISH-c8682c78-de06-5681-a6e5-356bb2811680-attr-5-name" class="er entityLabel">image</text><rect height="24" width="23.12841796875" y="123.015625" x="100.7193603515625" class="er attributeBoxOdd"></rect><text style="dominant-baseline: middle; font-size: 10.2px;" transform="translate(105.7193603515625,135.015625)" y="0" x="0" id="text-entity-DISH-c8682c78-de06-5681-a6e5-356bb2811680-attr-5-key" class="er entityLabel"></text></g><g transform="translate(460.476806640625,20 )" id="entity-DRINK-c8225665-8096-5824-9bc6-5a9511a5a262"><rect height="147.015625" width="123.8477783203125" y="0" x="0" class="er entityBox"></rect><text style="dominant-baseline: middle; text-anchor: middle; font-size: 12px;" transform="translate(61.92388916015625,13.5078125)" y="0" x="0" id="text-entity-DRINK-c8225665-8096-5824-9bc6-5a9511a5a262" class="er entityLabel">DRINK</text><rect height="24" width="37.4693603515625" y="27.015625" x="0" class="er attributeBoxOdd"></rect><text style="dominant-baseline: middle; font-size: 10.2px;" transform="translate(5,39.015625)" y="0" x="0" id="text-entity-DRINK-c8225665-8096-5824-9bc6-5a9511a5a262-attr-1-type" class="er entityLabel">int</text><rect height="24" width="63.25" y="27.015625" x="37.4693603515625" class="er attributeBoxOdd"></rect><text style="dominant-baseline: middle; font-size: 10.2px;" transform="translate(42.4693603515625,39.015625)" y="0" x="0" id="text-entity-DRINK-c8225665-8096-5824-9bc6-5a9511a5a262-attr-1-name" class="er entityLabel">drinkId</text><rect height="24" width="23.12841796875" y="27.015625" x="100.7193603515625" class="er attributeBoxOdd"></rect><text style="dominant-baseline: middle; font-size: 10.2px;" transform="translate(105.7193603515625,39.015625)" y="0" x="0" id="text-entity-DRINK-c8225665-8096-5824-9bc6-5a9511a5a262-attr-1-key" class="er entityLabel">PK</text><rect height="24" width="37.4693603515625" y="51.015625" x="0" class="er attributeBoxEven"></rect><text style="dominant-baseline: middle; font-size: 10.2px;" transform="translate(5,63.015625)" y="0" x="0" id="text-entity-DRINK-c8225665-8096-5824-9bc6-5a9511a5a262-attr-2-type" class="er entityLabel">string</text><rect height="24" width="63.25" y="51.015625" x="37.4693603515625" class="er attributeBoxEven"></rect><text style="dominant-baseline: middle; font-size: 10.2px;" transform="translate(42.4693603515625,63.015625)" y="0" x="0" id="text-entity-DRINK-c8225665-8096-5824-9bc6-5a9511a5a262-attr-2-name" class="er entityLabel">name</text><rect height="24" width="23.12841796875" y="51.015625" x="100.7193603515625" class="er attributeBoxEven"></rect><text style="dominant-baseline: middle; font-size: 10.2px;" transform="translate(105.7193603515625,63.015625)" y="0" x="0" id="text-entity-DRINK-c8225665-8096-5824-9bc6-5a9511a5a262-attr-2-key" class="er entityLabel"></text><rect height="24" width="37.4693603515625" y="75.015625" x="0" class="er attributeBoxOdd"></rect><text style="dominant-baseline: middle; font-size: 10.2px;" transform="translate(5,87.015625)" y="0" x="0" id="text-entity-DRINK-c8225665-8096-5824-9bc6-5a9511a5a262-attr-3-type" class="er entityLabel">string</text><rect height="24" width="63.25" y="75.015625" x="37.4693603515625" class="er attributeBoxOdd"></rect><text style="dominant-baseline: middle; font-size: 10.2px;" transform="translate(42.4693603515625,87.015625)" y="0" x="0" id="text-entity-DRINK-c8225665-8096-5824-9bc6-5a9511a5a262-attr-3-name" class="er entityLabel">description</text><rect height="24" width="23.12841796875" y="75.015625" x="100.7193603515625" class="er attributeBoxOdd"></rect><text style="dominant-baseline: middle; font-size: 10.2px;" transform="translate(105.7193603515625,87.015625)" y="0" x="0" id="text-entity-DRINK-c8225665-8096-5824-9bc6-5a9511a5a262-attr-3-key" class="er entityLabel"></text><rect height="24" width="37.4693603515625" y="99.015625" x="0" class="er attributeBoxEven"></rect><text style="dominant-baseline: middle; font-size: 10.2px;" transform="translate(5,111.015625)" y="0" x="0" id="text-entity-DRINK-c8225665-8096-5824-9bc6-5a9511a5a262-attr-4-type" class="er entityLabel">float</text><rect height="24" width="63.25" y="99.015625" x="37.4693603515625" class="er attributeBoxEven"></rect><text style="dominant-baseline: middle; font-size: 10.2px;" transform="translate(42.4693603515625,111.015625)" y="0" x="0" id="text-entity-DRINK-c8225665-8096-5824-9bc6-5a9511a5a262-attr-4-name" class="er entityLabel">price</text><rect height="24" width="23.12841796875" y="99.015625" x="100.7193603515625" class="er attributeBoxEven"></rect><text style="dominant-baseline: middle; font-size: 10.2px;" transform="translate(105.7193603515625,111.015625)" y="0" x="0" id="text-entity-DRINK-c8225665-8096-5824-9bc6-5a9511a5a262-attr-4-key" class="er entityLabel"></text><rect height="24" width="37.4693603515625" y="123.015625" x="0" class="er attributeBoxOdd"></rect><text style="dominant-baseline: middle; font-size: 10.2px;" transform="translate(5,135.015625)" y="0" x="0" id="text-entity-DRINK-c8225665-8096-5824-9bc6-5a9511a5a262-attr-5-type" class="er entityLabel">string</text><rect height="24" width="63.25" y="123.015625" x="37.4693603515625" class="er attributeBoxOdd"></rect><text style="dominant-baseline: middle; font-size: 10.2px;" transform="translate(42.4693603515625,135.015625)" y="0" x="0" id="text-entity-DRINK-c8225665-8096-5824-9bc6-5a9511a5a262-attr-5-name" class="er entityLabel">image</text><rect height="24" width="23.12841796875" y="123.015625" x="100.7193603515625" class="er attributeBoxOdd"></rect><text style="dominant-baseline: middle; font-size: 10.2px;" transform="translate(105.7193603515625,135.015625)" y="0" x="0" id="text-entity-DRINK-c8225665-8096-5824-9bc6-5a9511a5a262-attr-5-key" class="er entityLabel"></text></g><g transform="translate(248.55291748046875,267.015625 )" id="entity-RATING-103b45c1-afdb-5a16-94cf-de9b9900564d"><rect height="147.015625" width="100" y="0" x="0" class="er entityBox"></rect><text style="dominant-baseline: middle; text-anchor: middle; font-size: 12px;" transform="translate(50,13.5078125)" y="0" x="0" id="text-entity-RATING-103b45c1-afdb-5a16-94cf-de9b9900564d" class="er entityLabel">RATING</text><rect height="24" width="25.206685384114582" y="27.015625" x="0" class="er attributeBoxOdd"></rect><text style="dominant-baseline: middle; font-size: 10.2px;" transform="translate(5,39.015625)" y="0" x="0" id="text-entity-RATING-103b45c1-afdb-5a16-94cf-de9b9900564d-attr-1-type" class="er entityLabel">int</text><rect height="24" width="49.27776082356771" y="27.015625" x="25.206685384114582" class="er attributeBoxOdd"></rect><text style="dominant-baseline: middle; font-size: 10.2px;" transform="translate(30.206685384114582,39.015625)" y="0" x="0" id="text-entity-RATING-103b45c1-afdb-5a16-94cf-de9b9900564d-attr-1-name" class="er entityLabel">ratingId</text><rect height="24" width="25.515553792317707" y="27.015625" x="74.4844462076823" class="er attributeBoxOdd"></rect><text style="dominant-baseline: middle; font-size: 10.2px;" transform="translate(79.4844462076823,39.015625)" y="0" x="0" id="text-entity-RATING-103b45c1-afdb-5a16-94cf-de9b9900564d-attr-1-key" class="er entityLabel">PK</text><rect height="24" width="25.206685384114582" y="51.015625" x="0" class="er attributeBoxEven"></rect><text style="dominant-baseline: middle; font-size: 10.2px;" transform="translate(5,63.015625)" y="0" x="0" id="text-entity-RATING-103b45c1-afdb-5a16-94cf-de9b9900564d-attr-2-type" class="er entityLabel">int</text><rect height="24" width="49.27776082356771" y="51.015625" x="25.206685384114582" class="er attributeBoxEven"></rect><text style="dominant-baseline: middle; font-size: 10.2px;" transform="translate(30.206685384114582,63.015625)" y="0" x="0" id="text-entity-RATING-103b45c1-afdb-5a16-94cf-de9b9900564d-attr-2-name" class="er entityLabel">userId</text><rect height="24" width="25.515553792317707" y="51.015625" x="74.4844462076823" class="er attributeBoxEven"></rect><text style="dominant-baseline: middle; font-size: 10.2px;" transform="translate(79.4844462076823,63.015625)" y="0" x="0" id="text-entity-RATING-103b45c1-afdb-5a16-94cf-de9b9900564d-attr-2-key" class="er entityLabel">FK</text><rect height="24" width="25.206685384114582" y="75.015625" x="0" class="er attributeBoxOdd"></rect><text style="dominant-baseline: middle; font-size: 10.2px;" transform="translate(5,87.015625)" y="0" x="0" id="text-entity-RATING-103b45c1-afdb-5a16-94cf-de9b9900564d-attr-3-type" class="er entityLabel">int</text><rect height="24" width="49.27776082356771" y="75.015625" x="25.206685384114582" class="er attributeBoxOdd"></rect><text style="dominant-baseline: middle; font-size: 10.2px;" transform="translate(30.206685384114582,87.015625)" y="0" x="0" id="text-entity-RATING-103b45c1-afdb-5a16-94cf-de9b9900564d-attr-3-name" class="er entityLabel">dishId</text><rect height="24" width="25.515553792317707" y="75.015625" x="74.4844462076823" class="er attributeBoxOdd"></rect><text style="dominant-baseline: middle; font-size: 10.2px;" transform="translate(79.4844462076823,87.015625)" y="0" x="0" id="text-entity-RATING-103b45c1-afdb-5a16-94cf-de9b9900564d-attr-3-key" class="er entityLabel">FK</text><rect height="24" width="25.206685384114582" y="99.015625" x="0" class="er attributeBoxEven"></rect><text style="dominant-baseline: middle; font-size: 10.2px;" transform="translate(5,111.015625)" y="0" x="0" id="text-entity-RATING-103b45c1-afdb-5a16-94cf-de9b9900564d-attr-4-type" class="er entityLabel">int</text><rect height="24" width="49.27776082356771" y="99.015625" x="25.206685384114582" class="er attributeBoxEven"></rect><text style="dominant-baseline: middle; font-size: 10.2px;" transform="translate(30.206685384114582,111.015625)" y="0" x="0" id="text-entity-RATING-103b45c1-afdb-5a16-94cf-de9b9900564d-attr-4-name" class="er entityLabel">drinkId</text><rect height="24" width="25.515553792317707" y="99.015625" x="74.4844462076823" class="er attributeBoxEven"></rect><text style="dominant-baseline: middle; font-size: 10.2px;" transform="translate(79.4844462076823,111.015625)" y="0" x="0" id="text-entity-RATING-103b45c1-afdb-5a16-94cf-de9b9900564d-attr-4-key" class="er entityLabel">FK</text><rect height="24" width="25.206685384114582" y="123.015625" x="0" class="er attributeBoxOdd"></rect><text style="dominant-baseline: middle; font-size: 10.2px;" transform="translate(5,135.015625)" y="0" x="0" id="text-entity-RATING-103b45c1-afdb-5a16-94cf-de9b9900564d-attr-5-type" class="er entityLabel">int</text><rect height="24" width="49.27776082356771" y="123.015625" x="25.206685384114582" class="er attributeBoxOdd"></rect><text style="dominant-baseline: middle; font-size: 10.2px;" transform="translate(30.206685384114582,135.015625)" y="0" x="0" id="text-entity-RATING-103b45c1-afdb-5a16-94cf-de9b9900564d-attr-5-name" class="er entityLabel">rating</text><rect height="24" width="25.515553792317707" y="123.015625" x="74.4844462076823" class="er attributeBoxOdd"></rect><text style="dominant-baseline: middle; font-size: 10.2px;" transform="translate(79.4844462076823,135.015625)" y="0" x="0" id="text-entity-RATING-103b45c1-afdb-5a16-94cf-de9b9900564d-attr-5-key" class="er entityLabel"></text></g><rect height="17.015640258789062" width="28.587890625" y="241.91251373291016" x="128.8957061767578" class="er relationshipLabelBox"></rect><text style="text-anchor: middle; dominant-baseline: middle; font-size: 12px;" y="250.4203338623047" x="143.1896514892578" id="rel1" class="er relationshipLabel">rates</text><rect height="17.015625" width="20.02734375" y="208.5081787109375" x="288.5393371582031" class="er relationshipLabelBox"></rect><text style="text-anchor: middle; dominant-baseline: middle; font-size: 12px;" y="217.0159912109375" x="298.5530090332031" id="rel2" class="er relationshipLabel">has</text><rect height="17.015625" width="20.02734375" y="245.52279663085938" x="441.6170959472656" class="er relationshipLabelBox"></rect><text style="text-anchor: middle; dominant-baseline: middle; font-size: 12px;" y="254.03060913085938" x="451.6307678222656" id="rel3" class="er relationshipLabel">has</text></svg>